<svg width="61" height="60" viewBox="0 0 61 60" fill="none" xmlns="http://www.w3.org/2000/svg">
<path d="M38 9.375H47.375C47.8723 9.375 48.3492 9.57254 48.7008 9.92418C49.0525 10.2758 49.25 10.7527 49.25 11.25V50.625C49.25 51.1223 49.0525 51.5992 48.7008 51.9508C48.3492 52.3025 47.8723 52.5 47.375 52.5H13.625C13.1277 52.5 12.6508 52.3025 12.2992 51.9508C11.9475 51.5992 11.75 51.1223 11.75 50.625V11.25C11.75 10.7527 11.9475 10.2758 12.2992 9.92418C12.6508 9.57254 13.1277 9.375 13.625 9.375H23" stroke="black" stroke-linecap="round" stroke-linejoin="round"/>
<path d="M21.125 16.875V15C21.125 12.5136 22.1127 10.129 23.8709 8.37087C25.629 6.61272 28.0136 5.625 30.5 5.625C32.9864 5.625 35.371 6.61272 37.1291 8.37087C38.8873 10.129 39.875 12.5136 39.875 15V16.875H21.125Z" stroke="black" stroke-linecap="round" stroke-linejoin="round"/>
</svg>
