<svg width="61" height="61" viewBox="0 0 61 61" fill="none" xmlns="http://www.w3.org/2000/svg">
<path d="M22.2266 51.125H11.75C11.2527 51.125 10.7758 50.9275 10.4242 50.5758C10.0726 50.2242 9.87501 49.7473 9.87501 49.25V38.7734C9.87416 38.53 9.92133 38.2887 10.0138 38.0635C10.1063 37.8383 10.2423 37.6335 10.4141 37.4609L38.5391 9.33595C38.7135 9.15879 38.9215 9.0181 39.1509 8.92207C39.3802 8.82604 39.6264 8.77658 39.875 8.77658C40.1237 8.77658 40.3698 8.82604 40.5992 8.92207C40.8285 9.0181 41.0365 9.15879 41.2109 9.33595L51.6641 19.7891C51.8412 19.9635 51.9819 20.1715 52.078 20.4009C52.174 20.6302 52.2234 20.8764 52.2234 21.125C52.2234 21.3737 52.174 21.6198 52.078 21.8492C51.9819 22.0785 51.8412 22.2865 51.6641 22.4609L23.5391 50.5859C23.3665 50.7577 23.1617 50.8937 22.9365 50.9862C22.7113 51.0787 22.47 51.1259 22.2266 51.125V51.125Z" stroke="black" stroke-linecap="round" stroke-linejoin="round"/>
<path d="M32.375 15.5L45.5 28.625" stroke="black" stroke-linecap="round" stroke-linejoin="round"/>
</svg>
