<svg width="98" height="25" viewBox="0 0 98 25" fill="none" xmlns="http://www.w3.org/2000/svg">
<path d="M32.5131 5.80913C33.9575 5.80913 35.4018 5.81711 36.8461 5.80646C37.3977 5.80113 37.8184 5.97957 38.0416 6.53619C38.252 7.06084 38.0082 7.42303 37.6517 7.75593C36.9667 8.40043 36.8949 9.21804 37.2258 10.0277C37.7389 11.2847 38.3161 12.5178 38.9292 13.7295C39.3551 14.5738 39.9092 14.5498 40.3479 13.7002C41.2099 12.0277 41.7076 10.31 40.8482 8.45104C40.6763 8.08085 40.5506 7.68136 40.4531 7.28188C40.2273 6.36041 40.625 5.82245 41.5485 5.81179C43.0185 5.79581 44.4885 5.77184 45.9533 5.83309C46.3099 5.84907 46.8666 6.1154 46.9513 6.39237C47.0693 6.7812 46.9513 7.36711 46.7229 7.72398C46.3458 8.31787 45.6711 8.72535 45.3479 9.34055C44.2755 11.3726 43.2571 13.4366 42.3104 15.5352C41.1919 18.012 40.1606 20.534 39.1165 23.0454C38.7753 23.863 38.216 24.2093 37.3746 24.2226C35.0401 24.2599 35.0401 24.2732 34.1242 22.0627C33.3777 20.2597 32.6568 18.4434 31.859 16.667C31.6486 16.201 31.192 15.8548 30.8482 15.4526C30.5224 15.8414 30.0914 16.1823 29.8887 16.6324C28.9575 18.7151 28.0673 20.8216 27.2104 22.9389C26.841 23.8524 26.2587 24.2306 25.3146 24.2279C23.1135 24.2199 23.1083 24.2465 22.2207 22.1479C20.5917 18.2943 18.9703 14.4353 17.3387 10.5843C16.8744 9.48968 16.2997 8.48832 15.3711 7.71066C15.1171 7.49761 14.9657 6.88241 15.0709 6.55483C15.171 6.23791 15.6584 5.84908 15.9816 5.84375C19.0191 5.79049 22.0565 5.79847 25.094 5.83309C25.3839 5.83576 25.8636 6.10208 25.9175 6.33111C26.0098 6.7306 25.997 7.36711 25.7533 7.60679C24.881 8.46701 24.9503 9.36452 25.4018 10.3552C25.8918 11.4285 26.3536 12.5178 26.9026 13.5591C27.0693 13.876 27.4593 14.1849 27.7928 14.2462C27.9749 14.2808 28.2776 13.8174 28.4726 13.5378C28.6317 13.3141 28.7189 13.0318 28.8215 12.7708C29.5809 10.8586 29.1704 9.19673 27.5645 7.95567C27.0539 7.56152 26.8025 7.13807 26.9898 6.51488C27.1796 5.88103 27.6876 5.79581 28.252 5.80114C29.6732 5.81712 31.0945 5.80913 32.5131 5.80913Z" fill="#102231"/>
<path d="M77.3871 14.7575C76.1172 14.7575 74.8474 14.7415 73.5775 14.7628C72.5462 14.7788 72.2614 15.2502 72.6257 16.2782C73.167 17.8016 74.7319 18.9015 76.3994 18.9947C78.1131 19.0932 79.578 18.5579 80.8094 17.3142C81.0018 17.1198 81.2352 16.9413 81.4815 16.8428C82.128 16.5845 82.6462 16.9387 82.6642 17.6604C82.6719 17.9614 82.6077 18.2783 82.5102 18.5659C81.3045 22.1426 78.8982 24.1134 75.2553 24.5342C71.1763 25.0029 67.1178 22.574 65.753 18.5979C64.696 15.5219 64.8243 12.4538 66.3764 9.54295C67.1152 8.15542 68.1619 7.03421 69.5575 6.37107C72.8566 4.8051 76.1942 4.62932 79.46 6.4483C82.246 8.00095 83.031 11.1968 82.7822 13.8627C82.7565 14.129 82.4153 14.4619 82.1434 14.5791C81.7919 14.7335 81.3661 14.7389 80.971 14.7442C79.7755 14.7628 78.58 14.7522 77.3846 14.7522C77.3871 14.7549 77.3871 14.7549 77.3871 14.7575ZM74.147 11.6975C75.6786 11.6948 75.9659 11.3459 75.6863 9.8146C75.6683 9.7134 75.6657 9.60953 75.6427 9.50833C75.4041 8.44571 74.891 7.81453 74.2548 7.79855C73.6519 7.78257 72.99 8.44038 72.6796 9.36718C72.6539 9.43909 72.6437 9.51898 72.6232 9.59089C72.2101 11.053 72.6796 11.7002 74.147 11.6975Z" fill="#102231"/>
<path d="M58.295 14.7574C56.9995 14.7574 55.7065 14.7388 54.411 14.7627C53.4515 14.7814 53.1822 15.2341 53.508 16.1822C54.0698 17.8254 55.6501 18.9147 57.4459 18.9946C59.0236 19.0638 60.3807 18.5765 61.5428 17.4766C61.7275 17.3034 61.9097 17.0744 62.1303 17.0105C62.4792 16.912 62.9615 16.7788 63.1975 16.9466C63.4412 17.1197 63.6336 17.6843 63.5515 17.9932C62.7229 21.1225 60.9297 23.3889 57.8153 24.2038C54.4931 25.0747 51.4146 24.4542 48.8492 22.0067C46.8559 20.1051 46.0452 17.6417 46.0503 14.8347C46.0554 12.0223 46.7892 9.53753 48.7902 7.56143C50.0626 6.30439 51.648 5.72114 53.331 5.38292C55.509 4.94615 57.6408 5.12992 59.6829 6.06204C62.0893 7.16195 63.3155 9.16735 63.6772 11.8066C63.7491 12.3419 63.803 12.8852 63.8081 13.4232C63.8132 14.1262 63.5336 14.6456 62.7717 14.6536C61.2812 14.6695 59.7881 14.6589 58.2976 14.6589C58.295 14.6962 58.295 14.7281 58.295 14.7574ZM54.8779 11.7001C56.5788 11.6841 56.92 11.242 56.5916 9.75325C56.5146 9.4017 56.4992 8.98092 56.2966 8.73057C56.0015 8.36571 55.5757 7.9103 55.1857 7.889C54.7958 7.86769 54.234 8.24055 54.0108 8.61073C53.6798 9.15936 53.4874 9.84912 53.4259 10.4963C53.3951 10.8159 53.7286 11.2713 54.021 11.4897C54.2904 11.6947 54.724 11.6681 54.8779 11.7001Z" fill="#102231"/>
<path d="M7.33859 24.8324C5.52998 24.5075 3.67262 24.1746 1.81783 23.839C1.25857 23.7378 0.940458 23.4022 0.876323 22.8057C0.701875 21.1678 0.478684 19.5326 0.373502 17.8894C0.347848 17.5112 0.627477 16.9972 0.92763 16.7629C1.07899 16.6457 1.69725 16.9173 1.91018 17.181C2.93122 18.446 3.89324 19.7616 4.86554 21.0693C5.39401 21.7803 6.07897 22.289 6.92043 22.329C7.36937 22.3503 8.0056 22.0919 8.23905 21.7351C8.44171 21.4261 8.36988 20.6165 8.11078 20.3502C7.32833 19.5406 6.40991 18.8668 5.51715 18.1797C4.26266 17.2129 2.85938 16.414 1.73573 15.3087C-0.945119 12.6695 -0.760408 7.11937 3.98817 5.64662C5.93275 5.04473 7.86706 5.19121 9.81421 5.53742C10.5736 5.67325 11.3278 5.82238 12.0872 5.95821C12.7567 6.07805 13.1236 6.41895 13.1775 7.18595C13.2775 8.62409 13.493 10.0542 13.5854 11.4924C13.6059 11.8359 13.3647 12.4698 13.1775 12.4991C12.7978 12.5576 12.2719 12.4058 11.9871 12.1369C11.2944 11.4764 10.7224 10.6827 10.0656 9.97433C9.4294 9.28723 8.78291 8.60544 8.08256 7.9929C7.45916 7.44961 6.72802 7.49222 6.34577 7.98225C5.92761 8.51755 6.08154 9.38576 6.7665 9.87046C7.60795 10.4644 8.53151 10.9358 9.36783 11.5376C10.7326 12.523 12.1513 13.4578 13.3699 14.6136C15.9148 17.0292 15.335 23.2052 10.6531 24.2811C9.58845 24.5261 8.50072 24.6433 7.33859 24.8324Z" fill="#102231"/>
<path d="M85.6962 14.9119C85.6962 13.3087 85.6962 11.7081 85.6962 10.1048C85.6962 9.35913 85.5653 8.74127 84.7059 8.53354C84.4879 8.48027 84.2236 8.06747 84.2082 7.80648C84.1723 7.19926 83.9748 6.51748 84.6828 6.07539C85.8937 5.31371 87.1379 4.58399 88.2462 3.68116C89.3929 2.74638 90.3703 1.59587 91.4709 0.594503C91.807 0.288234 92.3072 -0.015375 92.7203 0.000604263C93.3308 0.0245732 93.5078 0.674396 93.5335 1.22302C93.5848 2.28031 93.554 3.34027 93.5694 4.40023C93.5822 5.343 93.9722 5.7558 94.8829 5.80108C95.2318 5.81972 95.5807 5.79575 95.927 5.80907C96.712 5.83836 97.1379 6.29111 97.1302 7.07143C97.1199 8.09943 96.7736 8.53354 95.9296 8.57615C93.6105 8.69333 93.5745 8.72528 93.5668 11.1248C93.5591 13.1356 93.554 15.1436 93.572 17.1543C93.5874 18.8588 94.5084 19.5779 96.1194 19.181C96.6069 19.0612 97.1148 18.8828 97.4945 19.3914C97.8947 19.9241 97.6228 20.4407 97.3457 20.8962C95.9578 23.1785 93.9388 24.361 91.358 24.5341C89.7572 24.6406 88.2898 24.2811 87.0841 23.1146C86.14 22.2011 85.7193 21.032 85.6987 19.7164C85.6731 18.1158 85.6936 16.5125 85.6936 14.9093C85.6936 14.9119 85.6936 14.9119 85.6962 14.9119Z" fill="#102231"/>
</svg>
